<?xml version="1.0" encoding="utf-8"?>
<!-- Generator: Adobe Illustrator 25.4.1, SVG Export Plug-In . SVG Version: 6.00 Build 0)  -->
<svg version="1.1" xmlns="http://www.w3.org/2000/svg" xmlns:xlink="http://www.w3.org/1999/xlink" x="0px" y="0px"
	 viewBox="0 0 635 83" style="enable-background:new 0 0 635 83;" xml:space="preserve">
<style type="text/css">
	.st0{fill:#005DAC;}
	.st1{fill:#FFFFFF;}
	.st2{fill:#009FD7;}
	.st3{fill:#0B1641;}
	.st4{fill:#006BD3;}
	.st5{display:none;}
	.st6{display:inline;fill:#666666;}
</style>
<g id="Capa_6">
	<rect x="482" class="st0" width="153" height="83"/>
</g>
<g id="REGLAS">
</g>
<g id="BORDE_x5F_BLANCO">
	<g>
		<polygon class="st1" points="483.9,0.4 484,0 0,0 0,83 566.6,83 		"/>
		<polygon class="st1" points="566.7,83 567,83 567,82.7 		"/>
	</g>
</g>
<g id="LINEA_1_">
	<polygon class="st2" points="560,83 478,0 484,0 567,83 	"/>
</g>
<g id="LOGO">
	<path class="st3" d="M176,46.2l5.4-5.7c2.4,2.5,6,3.9,10.5,3.9c3.2,0,4.9-0.9,4.9-2.6c0-1.9-2-2.4-6.9-3.1
		c-7.3-1-12.1-3.9-12.1-10.4c0-6.4,5.4-10.3,13.9-10.3c5.9,0,10.3,1.7,13.8,4.9l-5.1,5.7c-2.4-2.1-5.5-3-8.8-3
		c-2.7,0-4.7,0.7-4.7,2.4c0,1.8,2.2,2.4,7,3c6.2,0.9,12,3,12,10.1c0,7.3-6.2,10.9-14.2,10.9C184.5,52,179.3,49.6,176,46.2"/>
	<path class="st3" d="M242,19l-13.7,35.4c-2.5,6.6-6.3,8-10.8,8c-2.6,0-4.7-0.3-6.8-1l2.2-7.2c1.3,0.4,2.3,0.6,3.2,0.6
		c1.6,0,2.7-0.4,3.4-2.1l1.2-3.1L208,19h10.1l7,19.9l6.7-19.9H242z"/>
	<path class="st3" d="M242,46.2l5.4-5.7c2.4,2.5,6,3.9,10.5,3.9c3.2,0,4.9-0.9,4.9-2.6c0-1.9-2-2.4-6.9-3.1
		c-7.3-1-12.1-3.9-12.1-10.4c0-6.4,5.4-10.3,13.9-10.3c5.9,0,10.3,1.7,13.8,4.9l-5.1,5.7c-2.4-2.1-5.5-3-8.8-3
		c-2.7,0-4.7,0.7-4.7,2.4c0,1.8,2.2,2.4,7,3c6.2,0.9,12,3,12,10.1c0,7.3-6.2,10.9-14.2,10.9C250.5,52,245.3,49.6,242,46.2"/>
	<path class="st3" d="M324,28.8v22.2h-9.4V31.3c0-3.5-1.4-5.2-4.1-5.2c-3.2,0-5.3,2.8-5.3,6.6v18.2h-9.4V31.3c0-3.4-1.5-5.2-4.1-5.2
		c-3.2,0-5.3,2.8-5.3,6.6v18.2h-9.4V19h9.2v3.6c1.2-1.9,3.9-4.4,9-4.4c3.7,0,7.1,1.6,8.9,5c1.5-2.2,4.7-5,9.9-5
		C319.3,18.2,324,21.3,324,28.8"/>
	<path class="st3" d="M358,31.3v19.6h-9.2v-3.5c-1.4,2.6-4.3,4.4-8.8,4.4c-5.9,0-10.7-3.7-10.7-10c0-6.8,5-10.1,14.7-10.1h4.6v-0.4
		c0-3.6-2.1-5.3-5.5-5.3c-2.8,0-5.2,1.3-6.9,3.3l-5.5-5.6c2.9-3.4,7.5-5.4,13.1-5.4C352.6,18.2,358,22.5,358,31.3 M348.6,37.6h-3.7
		c-4.1,0-6.7,1.1-6.7,3.8c0,2.4,1.7,3.7,4.3,3.7c3.6,0,6.1-3.1,6.1-5.9V37.6z"/>
	<path class="st3" d="M394,29.4v21.5h-9.4V31.6c0-3.9-1.9-5.5-4.7-5.5c-3.7,0-5.8,3.2-5.8,6.6v18.2h-9.4V19h9.2v3.7
		c1.2-2.1,4.2-4.5,9.4-4.5C389,18.2,394,21.7,394,29.4"/>
	<path class="st4" d="M121.8,72.7c0,0,6.6-0.7,11.2-4.1c7-5.1,9.7-12.1,2.1-16.2l-4.6-2.5c0,0-17-9.2-28.1-15.2
		c-4.6-2.5-10.3,0.8-10.4,6.1c0,0,0,0.1,0,0.1c0,2.1,1.1,4,2.9,5C104.4,51,118,58.4,123,61.1C130.1,64.9,121.8,72.7,121.8,72.7"/>
	<path class="st2" d="M127.8,44.4c7.5-4,7.6-10.5,0.1-14.5l-4-2.2l-17.6-9.5c-6.7-3.6-2.8-7.6,0.4-9.1c-5.1,1.4-9.6,4.1-13.2,7.8
		c-4.3,4.4-3.1,11.6,2.2,14.5c11,5.9,27.4,14.8,27.4,14.8C124.9,45.7,126.4,45.1,127.8,44.4"/>
	<path class="st3" d="M106.3,18.1l17.6,9.5l4-2.1c7-3.7,7.5-9.6,1.6-13.6c-3-1.8-6.4-3-10-3.6c-0.1,0-0.2,0-0.4-0.1
		c-0.1,0-0.1,0-0.2,0c-0.3,0-0.5-0.1-0.8-0.1c-0.1,0-0.1,0-0.2,0c-0.2,0-0.4,0-0.7-0.1c-0.1,0-0.1,0-0.2,0c-0.3,0-0.5,0-0.8-0.1
		c0,0,0,0-0.1,0c-0.3,0-0.5,0-0.8,0c-0.1,0-0.2,0-0.2,0c-0.2,0-0.4,0-0.6,0c-2.7,0-5.4,0.4-7.9,1.1C103.6,10.5,99.6,14.5,106.3,18.1
		"/>
	<path class="st3" d="M100.4,67.3c0.1,0,0.2,0.1,0.3,0.1c0.2,0.1,0.3,0.2,0.5,0.2c0.1,0.1,0.3,0.1,0.4,0.2c0.1,0.1,0.3,0.1,0.4,0.2
		c0.2,0.1,0.3,0.1,0.5,0.2c0.1,0,0.2,0.1,0.3,0.1c0.2,0.1,0.4,0.1,0.5,0.2c0.1,0,0.2,0.1,0.3,0.1c0.2,0.1,0.4,0.1,0.6,0.2
		c0.1,0,0.2,0,0.2,0.1c0.2,0.1,0.5,0.1,0.7,0.2c0.1,0,0.1,0,0.2,0c0.3,0.1,0.5,0.1,0.8,0.2c0,0,0.1,0,0.1,0c0.3,0.1,0.6,0.1,0.9,0.2
		c0,0,0,0,0,0c2.1,0.4,4.3,0.6,6.5,0.6c5.9,0,9.1-5.3,1.9-9.2c-5.6-3-22-11.9-31.5-17.1c1,9,5.9,16.8,12.9,21.7l2.7,1.4
		C99.9,67.1,100.1,67.2,100.4,67.3"/>
</g>
<g id="Capa_5" class="st5">
	<path class="st6" d="M246.2,69.5c-0.5,0.5-1.2,0.8-1.9,0.8c-1.9,0-2.7-1.3-2.7-2.6c0-1.3,0.9-2.7,2.7-2.7c0.7,0,1.3,0.3,1.9,0.8
		l-0.6,0.6c-0.3-0.3-0.8-0.5-1.2-0.5c-1.2,0-1.8,0.9-1.8,1.8c0,0.8,0.5,1.7,1.8,1.7c0.4,0,0.9-0.2,1.3-0.5L246.2,69.5z"/>
	<path class="st6" d="M251.9,67.6c0,1.3-0.8,2.6-2.6,2.6c-1.8,0-2.6-1.3-2.6-2.6c0-1.3,0.9-2.7,2.6-2.7
		C251.1,64.9,252,66.3,251.9,67.6 M247.7,67.6c0,0.8,0.5,1.7,1.7,1.7c1.2,0,1.7-0.9,1.7-1.7c0-0.9-0.5-1.8-1.7-1.8
		C248.1,65.8,247.6,66.8,247.7,67.6"/>
	<rect x="252.8" y="67.3" class="st6" width="2.7" height="0.8"/>
	<path class="st6" d="M260.9,69.5c-0.5,0.5-1.2,0.8-1.9,0.8c-1.9,0-2.7-1.3-2.7-2.6c0-1.3,0.9-2.7,2.7-2.7c0.7,0,1.3,0.3,1.9,0.8
		l-0.6,0.6c-0.3-0.3-0.8-0.5-1.2-0.5c-1.2,0-1.8,0.9-1.8,1.8c0,0.8,0.5,1.7,1.8,1.7c0.4,0,0.9-0.2,1.3-0.5L260.9,69.5z"/>
	<path class="st6" d="M266.2,70.1h-1.1l-1.5-1.7h-0.9v1.7h-1V65c0.8,0,1.6,0,2.4,0c1.2,0,1.8,0.8,1.8,1.7c0,0.7-0.3,1.4-1.3,1.6
		L266.2,70.1L266.2,70.1z M262.6,65.9v1.6h1.5c0.6,0,0.9-0.4,0.9-0.8c0-0.4-0.3-0.8-0.9-0.8H262.6z"/>
	<polygon class="st6" points="270.6,70.1 266.8,70.1 266.8,65 270.6,65 270.6,65.9 267.8,65.9 267.8,67.1 270.5,67.1 270.5,68 
		267.8,68 267.8,69.2 270.6,69.2 	"/>
	<path class="st6" d="M275.2,69.1h-2.7l-0.4,1h-1l2.3-5.1h1l2.3,5.1h-1L275.2,69.1z M273.9,66.1l-0.9,2.2h1.9L273.9,66.1z"/>
	<polygon class="st6" points="277.8,65.9 276.2,65.9 276.2,65 280.4,65 280.4,65.9 278.8,65.9 278.8,70.1 277.8,70.1 	"/>
	<rect x="281.2" y="65" class="st6" width="1" height="5.1"/>
	<polygon class="st6" points="286.6,65 287.6,65 287.6,70.1 287,70.1 287,70.1 284.3,66.7 284.3,70.1 283.3,70.1 283.3,65 284.1,65 
		286.6,68.2 	"/>
	<path class="st6" d="M292.5,66.3c-0.3-0.3-0.9-0.5-1.3-0.5c-1.1,0-1.8,0.8-1.8,1.9c0,0.8,0.5,1.7,1.8,1.7c0.4,0,0.7-0.1,1.1-0.4V68
		H291v-0.9h2.2v2.1c-0.5,0.6-1.1,0.9-2,0.9c-1.9,0-2.7-1.3-2.7-2.6c0-1.4,0.9-2.8,2.7-2.8c0.7,0,1.4,0.3,1.9,0.8L292.5,66.3z"/>
	<polygon class="st6" points="279,77.4 278.2,77.4 277.6,75.8 277,74.2 276.5,75.8 275.9,77.4 275.1,77.4 273.2,72.3 274.3,72.3 
		275.5,76 276.7,72.3 277.3,72.3 278.6,76 279.8,72.3 280.8,72.3 	"/>
	<rect x="281.7" y="72.3" class="st6" width="1" height="5.1"/>
	<polygon class="st6" points="285.3,73.2 283.7,73.2 283.7,72.3 287.9,72.3 287.9,73.2 286.2,73.2 286.2,77.4 285.3,77.4 	"/>
	<polygon class="st6" points="292.1,77.4 292.1,75.3 289.6,75.3 289.6,77.4 288.7,77.4 288.7,72.3 289.6,72.3 289.6,74.4 
		292.1,74.4 292.1,72.3 293.1,72.3 293.1,77.4 	"/>
	<path class="st6" d="M333.7,72.4h-8.4c0.2,1,0.5,1.9,1.5,2.3c1.6,0.6,3,0.2,4.1-1.1c0.8,0.6,1.6,1.2,2.4,1.8
		c-0.7,0.8-1.4,1.5-2.4,1.8c-2,0.8-3.9,0.8-5.9-0.1c-1.7-0.8-2.8-2.1-3.2-3.9c-0.5-2.2-0.3-4.4,1.2-6.2c1.4-1.8,3.4-2.4,5.7-2.1
		c2.3,0.3,3.8,1.7,4.6,3.8C333.7,70,333.8,71.1,333.7,72.4 M325.3,70.1h4.6c-0.1-1.2-1-2.3-2.2-2.3
		C326.5,67.7,325.5,68.7,325.3,70.1"/>
	<path class="st6" d="M350.3,70.1c0.1-1.4-0.7-2.2-2.1-2.2c-0.9,0-1.7,0.4-2.4,1c-0.1,0.1-0.1,0.1-0.2,0.2c0,0,0,0,0,0
		c-0.7-0.7-1.4-1.4-2.1-2c0.6-0.7,1.2-1.2,2-1.5c1.9-0.8,3.8-0.8,5.7-0.1c1.7,0.7,2.6,2.1,2.7,3.9c0.1,1,0,1.9,0,2.9
		c0,1.6,0,3.2,0,4.8v0.5h-3.5v-1.2c-1.4,1.7-3.2,1.9-5.1,1.2c-1.6-0.5-2.5-2-2.4-3.7c0.1-1.7,1-2.8,2.7-3.3c1.3-0.4,2.6-0.4,3.9-0.4
		H350.3z M350.3,72.3c-0.9,0-1.7,0.1-2.5,0.2c-0.3,0-0.6,0.2-0.9,0.3c-0.4,0.2-0.6,0.7-0.5,1.1c0,0.5,0.2,0.9,0.7,1.1
		c0.9,0.4,1.7,0.3,2.4-0.3C350.2,74.1,350.4,73.3,350.3,72.3"/>
	<path class="st6" d="M360.1,77.5h-3.6V65.3h3.5v1.3c1.1-1.4,2.5-1.8,4.1-1.6c2,0.2,3.3,1.5,3.5,3.5c0,0.4,0.1,0.7,0.1,1.1
		c0,2.5,0,4.9,0,7.4v0.5h-3.6V77c0-2.2,0-4.4,0-6.6c0-0.2,0-0.5,0-0.7c-0.1-0.7-0.3-1.3-1-1.6c-0.8-0.3-1.5-0.2-2.1,0.4
		c-0.6,0.5-0.9,1.2-0.9,2c0,2.2,0,4.3,0,6.5C360.1,77.1,360.1,77.3,360.1,77.5"/>
	<path class="st6" d="M311.7,66.8c-0.6,0.7-1.3,1.4-1.9,2.1c-1.1-0.9-2.4-1.2-3.7-1.1c-0.3,0-0.7,0.1-1,0.3
		c-0.2,0.1-0.4,0.4-0.4,0.6c0,0.2,0.2,0.5,0.4,0.6c0.5,0.2,0.9,0.3,1.4,0.4c1,0.2,2.1,0.4,3.1,0.7c1.5,0.5,2.3,1.6,2.4,3.1
		c0,1.6-0.6,2.9-2.1,3.6c-1.3,0.7-2.8,0.8-4.3,0.7c-1.7-0.1-3.4-0.6-4.7-1.8c-0.1-0.1-0.2-0.2-0.4-0.4c0.7-0.7,1.4-1.4,2-2.1
		c0.7,0.4,1.4,0.8,2.1,1.1c0.8,0.3,1.8,0.4,2.7,0.3c0.2,0,0.4-0.1,0.6-0.2c0.4-0.1,0.6-0.4,0.6-0.8c0-0.4-0.3-0.7-0.6-0.7
		c-0.7-0.2-1.4-0.3-2.1-0.5c-0.9-0.2-1.8-0.4-2.7-0.8c-1.3-0.6-1.9-1.7-1.9-3.1c0-1.4,0.6-2.5,1.9-3.2c1.8-0.9,3.6-0.9,5.5-0.6
		C309.9,65.4,311.1,66,311.7,66.8"/>
	<path class="st6" d="M342.5,60.9c-0.2,0.9-0.4,1.7-0.6,2.6c-0.3,0-0.6-0.1-0.8-0.1c-1.4-0.1-1.9,0.4-1.7,1.8h2.8v2.9h-2.9v9.3h-3.6
		c0-3.1,0-12.7,0-12.9c0-2.3,1.1-3.6,3.4-4C340.3,60.4,341.4,60.5,342.5,60.9"/>
	<path class="st6" d="M320.1,74.6c0.2,0.9,0.5,1.8,0.7,2.8c-1.3,0.4-2.5,0.6-3.8,0.4c-0.5-0.1-1-0.2-1.4-0.4
		c-1.3-0.6-1.7-1.7-1.7-3.1c0-1.9,0-3.7,0-5.6c0-0.1,0-5.7,0-6.8h3.6v3.4h3v2.9h-2.9c0,0.2,0,0.3,0,0.4c0,1.5,0,3,0,4.5
		c0,0,0,0.1,0,0.1c0,1.3,0.5,1.7,1.8,1.5C319.5,74.7,319.8,74.7,320.1,74.6"/>
	<rect x="370.4" y="65.3" class="st6" width="3.5" height="12.2"/>
	<path class="st6" d="M380.1,77.5h-3.6V65.3h3.5v1.3c1.1-1.4,2.5-1.8,4.1-1.6c2,0.2,3.3,1.5,3.5,3.5c0,0.4,0.1,0.7,0.1,1.1
		c0,2.5,0,4.9,0,7.4v0.5h-3.6V77c0-2.2,0-4.4,0-6.6c0-0.2,0-0.5,0-0.7c-0.1-0.7-0.3-1.3-1-1.6c-0.8-0.3-1.5-0.2-2.1,0.4
		c-0.6,0.5-0.9,1.2-0.9,2c0,2.2,0,4.3,0,6.5V77.5z"/>
	<rect x="390.4" y="65.3" class="st6" width="3.5" height="12.2"/>
</g>
</svg>
